<?xml version="1.0" standalone="no"?>
<!DOCTYPE svg PUBLIC "-//W3C//DTD SVG 1.1//EN" "http://www.w3.org/Graphics/SVG/1.1/DTD/svg11.dtd" >
<svg xmlns="http://www.w3.org/2000/svg">
<metadata></metadata>
<defs>
<font id="noticia_textregular" horiz-adv-x="786" >
<font-face units-per-em="2048" ascent="1638" descent="-410" />
<missing-glyph horiz-adv-x="539" />
<glyph horiz-adv-x="2048" />
<glyph horiz-adv-x="2048" />
<glyph unicode="&#xd;" horiz-adv-x="0" />
<glyph unicode=" "  horiz-adv-x="539" />
<glyph unicode="&#x09;" horiz-adv-x="539" />
<glyph unicode="&#xa0;" horiz-adv-x="539" />
<glyph unicode="!" horiz-adv-x="580" d="M176 77q0 34 8 64.5t21.5 54t31.5 37t38 13.5q36 0 66 -8t53 -22t36 -32t13 -39q0 -33 -8 -63t-21 -53t-31.5 -37t-39.5 -14q-35 0 -65.5 8t-53 21.5t-35.5 31.5t-13 38zM209 1509l193 22l19 -22l-37 -1146h-138z" />
<glyph unicode="&#x22;" horiz-adv-x="591" d="M69 1134v375h182v-41l-62 -334h-120zM321 1134v375h183v-41l-62 -334h-121z" />
<glyph unicode="#" horiz-adv-x="1290" d="M88 300v134h234l65 457h-234v134h253l43 301h152v-20l-40 -281h280l43 301h152v-20l-40 -281h206v-134h-225l-65 -457h226v-134h-245l-42 -300h-152v20l39 280h-280l-42 -300h-152v20l39 280h-215zM477 434h281l64 457h-280z" />
<glyph unicode="$" horiz-adv-x="1078" d="M110 294l114 24l81 -190q36 -10 80 -17q42 -6 93 -6v505q-5 2 -9 5q-249 147 -304 227.5t-55 175.5q0 143 122 236q95 72 246 89v188h123v-183q67 -2 136 -12q83 -12 161 -39l20 -265l-103 -22l-80 190q-40 10 -82 15q-26 4 -52 5v-468q4 -2 9 -5q184 -108 268.5 -197.5 t84.5 -211.5q0 -162 -126 -261q-94 -74 -236 -92v-206h-123v199q-105 2 -193 19q-97 18 -155 43zM296 1053q0 -70 58 -129q36 -35 124 -95v388q-27 -3 -53 -7q-65 -10 -110 -26q-9 -30 -14 -62.5t-5 -68.5zM601 111q11 2 23 4q67 9 124 27q10 25 19.5 65.5t9.5 96.5 q0 62 -58 128q-35 41 -118 99v-420z" />
<glyph unicode="%" horiz-adv-x="1649" d="M106 1053q0 60 23 114t63 94t93.5 63.5t115.5 23.5q61 0 114.5 -23.5t94 -63.5t63.5 -94t23 -114q0 -62 -23 -115.5t-63.5 -93.5t-94 -63t-114.5 -23q-62 0 -115.5 23t-93.5 63t-63 93.5t-23 115.5zM249 0v20l947 1306h171v-20l-947 -1306h-171zM254 1053 q0 -42 11.5 -73.5t32 -53.5t47 -33.5t56.5 -11.5q29 0 55.5 11.5t47 33.5t32.5 53.5t12 73.5q0 41 -12 72.5t-32.5 53.5t-47 33.5t-55.5 11.5q-30 0 -56.5 -11.5t-47 -33.5t-32 -53.5t-11.5 -72.5zM920 273q0 61 23 115t63.5 94t93.5 63t115 23q61 0 115 -23t94 -63t63 -94 t23 -115t-23 -114.5t-63 -94t-94 -63.5t-115 -23q-62 0 -115 23t-93.5 63.5t-63.5 94t-23 114.5zM1068 273q0 -41 12 -72.5t32.5 -54t47 -33.5t55.5 -11q30 0 56.5 11t47 33.5t32 54t11.5 72.5q0 42 -11.5 73.5t-32 53.5t-47 33.5t-56.5 11.5q-29 0 -55.5 -11.5t-47 -33.5 t-32.5 -53.5t-12 -73.5z" />
<glyph unicode="&#x26;" horiz-adv-x="1410" d="M75 269v29q0 65 24.5 121t65 104t91.5 88t105 70q-67 95 -104.5 168.5t-37.5 129.5v29q0 68 27.5 129.5t82 108.5t134 74.5t182.5 27.5q79 0 139.5 -19t101.5 -53t61.5 -83t20.5 -110v-29q0 -55 -25.5 -104t-74 -95.5t-119 -93.5t-160.5 -99q84 -99 177 -197.5 t189 -179.5q33 47 51 105t18 125v26l-150 33l20 96l297 22v-183q0 -87 -31.5 -165t-90.5 -146q64 -44 122.5 -68.5t111.5 -24.5q45 0 83.5 5t66.5 12q34 6 62 16v-94q-26 -19 -63 -33q-31 -13 -75.5 -23t-103.5 -10q-79 0 -159.5 31t-163.5 87q-86 -56 -194.5 -87 t-240.5 -31q-101 0 -183 17.5t-139 52.5t-87.5 90t-30.5 131zM262 306q0 -47 22 -84.5t59 -63.5t87 -39.5t105 -13.5q89 0 165.5 19t138.5 55q-100 84 -199 188t-198 220q-51 -30 -86 -60t-56 -62.5t-29.5 -67.5t-8.5 -76v-15zM405 1026q0 -38 5.5 -69.5t19 -62t34.5 -62.5 t50 -72q56 30 105 63t85 67t57 70t21 72v16q0 42 -14 74t-39 54.5t-59.5 33.5t-75.5 11q-30 0 -55 -3t-45 -7q-23 -4 -40 -10q-14 -20 -25 -46q-10 -21 -17 -50t-7 -62v-17z" />
<glyph unicode="'" horiz-adv-x="339" d="M69 1134v375h182v-41l-62 -334h-120z" />
<glyph unicode="(" horiz-adv-x="649" d="M108 532q0 119 17 227t45.5 203t64 177t74.5 150q88 157 201 280l91 -59q-88 -117 -157 -268q-29 -65 -57.5 -142.5t-50.5 -167t-35.5 -190t-13.5 -210.5q0 -111 13.5 -211.5t35.5 -189.5t50.5 -166.5t57.5 -141.5q69 -151 157 -270l-91 -59q-113 122 -201 281 q-39 67 -74.5 149t-64 177.5t-45.5 203.5t-17 227z" />
<glyph unicode=")" horiz-adv-x="649" d="M49 -447q88 119 157 270q29 64 57 141.5t50 166.5t36 189.5t14 211.5q0 110 -14 210.5t-36 190t-50 167t-57 142.5q-69 151 -157 268l91 59q112 -123 201 -280q37 -68 73.5 -150t65 -177t45.5 -203t17 -227t-17 -227t-45.5 -203.5t-65 -177.5t-73.5 -149 q-89 -159 -201 -281z" />
<glyph unicode="*" horiz-adv-x="764" d="M15 1280l74 129l21 -12l220 -161l-30 271v24h150v-24l-31 -271l221 161l21 12l73 -129l-20 -12l-249 -110l250 -109l20 -12l-74 -130l-21 12l-221 162l31 -272v-23h-150v23l30 272l-220 -162l-21 -12l-73 130l19 12l249 109l-250 110z" />
<glyph unicode="+" horiz-adv-x="1041" d="M157 510v144h292v311h144v-311h292v-144h-292v-312h-144v312h-292z" />
<glyph unicode="," horiz-adv-x="539" d="M88 77q0 34 8 64.5t21.5 54t31.5 37t38 13.5q38 0 79.5 -12t67.5 -40q9 -9 17 -21.5t13.5 -31.5t9.5 -43.5t4 -59.5q0 -49 -7 -95t-29.5 -93.5t-64 -98.5t-108.5 -110l-67 79q83 69 115.5 123t32.5 94q0 20 -15.5 30.5t-38.5 16.5q-48 13 -78 37.5t-30 55.5z" />
<glyph unicode="-" d="M59 510v144h679v-144h-679z" />
<glyph unicode="." horiz-adv-x="539" d="M137 77q0 34 8 64.5t21.5 54t31.5 37t38 13.5q35 0 65.5 -8t53.5 -21.5t36 -32t13 -39.5q0 -33 -8 -63t-21.5 -53t-32 -37t-38.5 -14q-35 0 -65.5 8t-53 22t-35.5 31.5t-13 37.5z" />
<glyph unicode="/" horiz-adv-x="816" d="M59 -270l556 1779h162v-19l-557 -1779h-161v19z" />
<glyph unicode="0" horiz-adv-x="1152" d="M112 507v103q0 363 124 550.5t350 187.5q233 0 344 -129t111 -401v-102q0 -369 -117 -553.5t-374 -184.5q-223 0 -330.5 133t-107.5 396zM302 561q0 -233 65.5 -344.5t206.5 -111.5q153 0 215 130.5t62 393.5v137q0 234 -62.5 344.5t-212.5 110.5q-148 0 -211 -124 t-63 -399v-137z" />
<glyph unicode="1" horiz-adv-x="713" d="M52 1244l328 82h109v-1197l178 -33l-19 -96h-505l-20 96l180 33v1014h-241z" />
<glyph unicode="2" horiz-adv-x="962" d="M67 0v142q133 140 246.5 259.5t196.5 222.5t130 190.5t47 163.5q0 117 -61 180t-168 63q-55 0 -105.5 -14t-87.5 -32l-56 -197l-107 11v256q76 42 179 72.5t200 30.5q185 0 288.5 -85t103.5 -247q0 -96 -49.5 -196t-130.5 -204.5t-186.5 -214.5t-217.5 -225l4 -9h428 l81 189l102 -23l-23 -333h-814z" />
<glyph unicode="3" horiz-adv-x="970" d="M83 71l1 252l103 12l51 -189q50 -19 103.5 -30t107.5 -11q107 0 177.5 71.5t70.5 193.5q0 126 -72.5 200t-185.5 74h-101v126h91q103 0 162 62t59 174q0 109 -54 162t-166 53q-44 0 -86.5 -9t-78.5 -22l-52 -189l-103 11v263q85 36 173 54.5t175 18.5q180 0 279 -82 t99 -236q0 -114 -54 -192t-135 -120q110 -34 172.5 -119.5t62.5 -201.5q0 -196 -121.5 -307.5t-324.5 -111.5q-94 0 -190.5 28t-162.5 65z" />
<glyph unicode="4" horiz-adv-x="1005" d="M24 400l567 926h190l-556 -874l5 -10h374v359h186v-359h129l24 -98l-153 -33v-182l149 -33l-20 -96h-485l-19 96l189 33v187h-558z" />
<glyph unicode="5" horiz-adv-x="1022" d="M108 65v252l112 7l60 -190q30 -11 84 -20t114 -9q114 0 195 80.5t81 214.5q0 128 -77 199.5t-209 71.5q-62 0 -121 -8.5t-127 -33.5l-94 85l35 612h698v-167h-572l-25 -397q44 19 106 31.5t119 12.5q214 0 333.5 -97.5t119.5 -286.5q0 -195 -138 -319.5t-336 -124.5 q-93 0 -193.5 27t-164.5 60z" />
<glyph unicode="6" horiz-adv-x="1029" d="M102 490v71q0 345 180.5 566t434.5 221q44 0 81.5 -5.5t77.5 -16.5v-114q-64 6 -89.5 7.5t-52.5 1.5q-186 0 -313.5 -159t-127.5 -385l10 -4q56 43 125 70.5t148 27.5q179 0 283 -102t104 -251v-28q0 -193 -119 -302.5t-310 -109.5q-208 0 -320 134.5t-112 377.5z M293 511q0 -193 73.5 -299.5t184.5 -106.5q105 0 165.5 70.5t60.5 189.5v15q0 122 -70 193.5t-189 71.5q-63 0 -119.5 -15t-105.5 -35v-84z" />
<glyph unicode="7" horiz-adv-x="907" d="M49 968v358h870v-91l-504 -1235h-176l498 1150l-6 9h-517l-52 -199z" />
<glyph unicode="8" horiz-adv-x="997" d="M82 298q0 120 73.5 215.5t198.5 144.5q-106 56 -164 132.5t-58 196.5q0 151 109 256t286 105q167 0 257.5 -75t90.5 -210q0 -107 -69.5 -195.5t-177.5 -135.5q140 -60 218.5 -150.5t78.5 -213.5q0 -174 -121 -282t-329 -108q-185 0 -289 83t-104 237zM269 339 q0 -110 59 -172t164 -62t176 66t71 168q0 76 -58.5 137t-194.5 119q-14 6 -27.5 11.5t-27.5 11.5q-75 -45 -118.5 -115t-43.5 -164zM318 1011q0 -100 59 -153.5t169 -93.5q67 38 105 103t38 161q0 92 -45 142.5t-131 50.5q-89 0 -142 -59.5t-53 -150.5z" />
<glyph unicode="9" horiz-adv-x="1036" d="M92 884v28q0 197 111 316.5t311 119.5q205 0 313 -128t108 -393v-76q0 -380 -164.5 -576.5t-452.5 -196.5q-46 0 -91.5 6.5t-82.5 16.5v114q31 -5 66.5 -7.5t78.5 -2.5q203 0 331 145.5t128 378.5l-10 4q-43 -40 -119.5 -70.5t-157.5 -30.5q-157 0 -263 100t-106 252z M278 922q0 -115 67 -189t173 -74q59 0 120.5 15t109.5 37v71q0 211 -64 325t-185 114q-111 0 -166 -73.5t-55 -209.5v-16z" />
<glyph unicode=":" horiz-adv-x="584" d="M149 77q0 34 8 64.5t21 54t31 37t39 13.5q35 0 65.5 -8t53.5 -22t36 -32t13 -39q0 -33 -8 -63t-21.5 -53t-32 -37t-38.5 -14q-36 0 -66 8t-53 21.5t-35.5 31.5t-12.5 38zM149 827q0 33 8 64t21.5 54t31 37t38.5 14q35 0 65.5 -8t53.5 -21.5t36 -32.5t13 -39 q0 -34 -8 -63.5t-22 -52.5t-32 -37t-38 -14q-36 0 -66 8t-53 21.5t-35.5 31.5t-12.5 38z" />
<glyph unicode=";" horiz-adv-x="588" d="M149 77q0 34 8 64.5t21.5 54t31 37t38.5 13.5q38 0 79 -12t68 -40q9 -9 16.5 -21.5t13.5 -31.5t10 -43.5t4 -59.5q0 -49 -7.5 -95t-29.5 -93.5t-63.5 -98.5t-109.5 -110l-66 79q83 69 115.5 123t32.5 94q0 20 -16 30.5t-38 16.5q-48 13 -78 37.5t-30 55.5zM149 827 q0 33 8 64t21.5 54t31 37t38.5 14q35 0 65.5 -8t53.5 -21.5t36 -32.5t13 -39q0 -34 -8 -63.5t-22 -52.5t-32 -37t-38 -14q-36 0 -66 8t-53 21.5t-35.5 31.5t-12.5 38z" />
<glyph unicode="&#x3c;" horiz-adv-x="1125" d="M137 544v94l782 366h30v-136l-581 -272v-10l581 -271v-138h-30z" />
<glyph unicode="=" horiz-adv-x="1099" d="M157 301v154h786v-154h-786zM157 755v153h786v-153h-786z" />
<glyph unicode="&#x3e;" horiz-adv-x="1125" d="M176 177v138l581 271v10l-581 272v136h30l782 -366v-94l-782 -367h-30z" />
<glyph unicode="?" horiz-adv-x="998" d="M118 1178v271q45 23 103 41q50 15 120.5 28t158.5 13q96 0 171 -18.5t126 -53.5t77.5 -86t26.5 -117q0 -56 -11 -101t-36.5 -87.5t-67 -87.5t-103.5 -102l-148 -135q-61 -55 -89 -95.5t-28 -83.5q0 -38 24 -58t67 -20q27 0 52 4.5t44 10.5q21 7 40 15v-99 q-22 -13 -49 -24q-24 -10 -56.5 -17.5t-73.5 -7.5q-45 0 -85.5 12t-71.5 36.5t-49 61t-18 86.5q0 35 9 69t29.5 70t53.5 74t81 82l149 138q44 41 74.5 73t50 60.5t27.5 56.5t8 61q0 34 -13.5 64t-43.5 52.5t-77.5 35.5t-116.5 13q-43 0 -75.5 -5t-55.5 -11q-26 -6 -46 -15 l-69 -221zM290 77q0 34 8 64.5t21 54t31 37t39 13.5q35 0 65.5 -8t53.5 -22t36 -32t13 -39q0 -33 -8 -63t-21.5 -53t-32 -37t-38.5 -14q-36 0 -66 8t-52.5 21.5t-35.5 31.5t-13 38z" />
<glyph unicode="@" horiz-adv-x="1822" d="M137 343q0 148 32 280t90.5 243.5t142.5 200.5t187.5 151.5t224.5 96t254 33.5q165 0 294.5 -44.5t218.5 -124.5t136 -193.5t47 -250.5q0 -121 -22 -213.5t-59.5 -162t-85.5 -117.5t-99.5 -78.5t-103.5 -45.5t-96 -18l-144 -14l-79 77l26 186q-6 -11 -20.5 -34.5t-37 -53 t-52 -60t-64.5 -56t-76 -42.5t-86 -17q-63 0 -108.5 18.5t-73.5 59.5t-36.5 105.5t3.5 156.5l12 91q14 110 51.5 205.5t96 166.5t139.5 112t182 41q60 0 118.5 -12.5t106.5 -25.5q55 -18 107 -39l-110 -780q35 2 72.5 13t75 33.5t71 59t59.5 92.5t41.5 133t15.5 180 q0 127 -32.5 226.5t-100 168t-171 104t-245.5 35.5q-104 0 -198.5 -31t-175 -87.5t-145.5 -134.5t-111 -173.5t-70.5 -205t-24.5 -226.5q0 -159 49 -266.5t131.5 -172t193 -92t233.5 -27.5q103 0 191 16.5t154 37.5q77 24 141 55v-85q-69 -40 -153 -71q-71 -27 -166.5 -49 t-205.5 -22q-107 0 -203.5 14t-179.5 44.5t-150 80.5t-114 122t-72.5 167.5t-25.5 218.5zM737 275q21 -83 85 -83q36 0 71 18.5t66.5 47t59 63t48.5 65.5t34 55.5t17 31.5l63 454q-21 9 -46 16q-22 6 -50.5 11t-59.5 5q-34 0 -64.5 -7.5t-54.5 -16.5q-27 -11 -50 -25 q-24 -37 -45 -91q-18 -46 -36.5 -113t-31.5 -158l-5 -35q-22 -155 -1 -238z" />
<glyph unicode="A" horiz-adv-x="1193" d="M-8 96l106 28l431 1202h146l421 -1202l105 -28l-19 -96h-377l-20 96l125 28l-92 274h-481l-94 -274l125 -28l-19 -96h-337zM381 524h394l-190 558h-10z" />
<glyph unicode="B" horiz-adv-x="1136" d="M74 96l150 33v1068l-150 33l20 96h468q207 0 315.5 -76t108.5 -230q0 -112 -56 -190.5t-137 -119.5l2 -16q109 -21 178.5 -96t69.5 -188q0 -190 -115.5 -300t-315.5 -110h-518zM411 126h134q90 0 157.5 12t125.5 36q13 41 21 93.5t8 116.5q0 115 -79.5 178t-215.5 63 h-151v-499zM411 752h128q76 0 130.5 12t91.5 26q14 37 26.5 88t12.5 115q0 106 -70 156.5t-207 50.5h-112v-448z" />
<glyph unicode="C" horiz-adv-x="1152" d="M98 505v87q0 373 151 564.5t442 191.5q93 0 188 -15t168 -43l20 -265l-103 -21l-81 191q-37 11 -95 18.5t-124 7.5q-84 0 -160 -22.5t-133 -63.5q-39 -90 -63 -215.5t-24 -250.5v-130q0 -210 115 -322t310 -112q92 0 188.5 29t172.5 73v-104q-91 -59 -201.5 -92 t-218.5 -33q-273 0 -412.5 131.5t-139.5 395.5z" />
<glyph unicode="D" horiz-adv-x="1334" d="M76 96l150 33v1068l-150 33l20 96h529q296 0 446 -148.5t150 -427.5v-77q0 -311 -152 -492t-421 -181h-552zM413 126h206q77 0 145.5 12.5t127.5 35.5q61 76 102 191.5t41 244.5v92q0 236 -113.5 367t-334.5 131h-174v-1074z" />
<glyph unicode="E" horiz-adv-x="1167" d="M74 96l150 33v1068l-150 33l20 96h918l24 -294l-101 -22l-81 190h-443v-443h349l34 119l97 -19v-328l-97 -19l-34 120h-349v-504h471l81 190l102 -23l-23 -293h-948z" />
<glyph unicode="F" horiz-adv-x="1022" d="M71 96l149 33v1068l-149 33l19 96h860l23 -294l-101 -22l-81 190h-384v-443h313l34 119l96 -19v-328l-96 -19l-34 120h-313v-501l198 -33l-20 -96h-495z" />
<glyph unicode="G" horiz-adv-x="1274" d="M100 495v87q0 371 154.5 568.5t445.5 197.5q96 0 191 -15t164 -41l21 -265l-103 -22l-80 190q-37 10 -96 18t-120 8q-85 0 -162 -23t-132 -63q-45 -91 -71 -212t-26 -254v-130q0 -207 118.5 -320.5t284.5 -113.5q51 0 101 9.5t94 25.5v354l-150 33l20 106h446l19 -106 l-149 -33v-391q-94 -58 -206.5 -91.5t-223.5 -33.5q-257 0 -398.5 132.5t-141.5 384.5z" />
<glyph unicode="H" horiz-adv-x="1429" d="M71 96l149 33v1068l-149 33l19 96h446l20 -96l-149 -33v-435h611v435l-149 33l20 96h447l19 -96l-151 -33v-1068l151 -33l-19 -96h-447l-20 96l149 33v507h-611v-507l149 -33l-20 -96h-446z" />
<glyph unicode="I" horiz-adv-x="630" d="M71 96l149 33v1068l-149 33l19 96h446l20 -96l-149 -33v-1068l149 -33l-20 -96h-446z" />
<glyph unicode="J" horiz-adv-x="841" d="M69 285l101 22l80 -188q20 -8 40 -11.5t36 -3.5q24 0 48.5 6t42.5 14q14 38 22.5 100t8.5 138v835l-189 33l19 96h485l20 -96l-149 -33v-868q0 -170 -82.5 -260.5t-245.5 -90.5q-59 0 -118 16t-99 36z" />
<glyph unicode="K" horiz-adv-x="1277" d="M71 96l149 33v1068l-149 33l19 96h446l20 -96l-149 -33v-546l13 -6l534 563l-108 21l19 97h355l20 -96l-120 -33l-424 -446l447 -621l143 -34l-20 -96h-239l-450 626l-170 -179v-318l149 -33l-20 -96h-446z" />
<glyph unicode="L" horiz-adv-x="997" d="M73 96l149 33v1068l-149 33l19 96h446l20 -96l-149 -33v-1071h329l81 190l102 -22l-24 -294h-805z" />
<glyph unicode="M" horiz-adv-x="1883" d="M71 96l149 33v1068l-149 33l19 96h419l427 -1021h16l409 1021h428l20 -96l-149 -33v-1068l149 -33l-20 -96h-445l-20 96l150 33v1057h-16l-482 -1186h-103l-500 1186h-15v-1057l149 -33l-20 -96h-397z" />
<glyph unicode="N" horiz-adv-x="1501" d="M71 96l149 33v1068l-149 33l19 96h412l642 -1193h15v1064l-151 33l20 96h399l19 -96l-148 -33v-1197h-282l-643 1194h-15v-1065l149 -33l-20 -96h-397z" />
<glyph unicode="O" horiz-adv-x="1318" d="M100 514v78q0 381 145 568.5t424 187.5q273 0 411 -134t138 -404v-76q0 -369 -141 -562.5t-427 -193.5q-274 0 -412 135t-138 401zM286 559q0 -217 110.5 -335.5t282.5 -118.5q86 0 162 26t124 61q32 98 49.5 215.5t17.5 229.5v130q0 232 -102.5 343t-289.5 111 q-87 0 -164.5 -27t-121.5 -59q-30 -90 -49 -202.5t-19 -243.5v-130z" />
<glyph unicode="P" horiz-adv-x="1079" d="M73 96l149 33v1068l-149 33l19 96h491q218 0 333 -82t115 -256q0 -182 -121.5 -290.5t-303.5 -108.5h-197v-460l207 -33l-19 -96h-505zM409 715h156q72 0 132 9.5t113 28.5q16 50 23.5 100t7.5 96q0 115 -77.5 183t-227.5 68h-127v-485z" />
<glyph unicode="Q" horiz-adv-x="1332" d="M98 514v78q0 368 142.5 562t426.5 194q273 0 411 -134t138 -404v-76q0 -440 -202 -627q37 -78 73.5 -124.5t92.5 -46.5q34 0 67.5 6.5t63.5 18.5v-98q-33 -23 -77.5 -38t-94.5 -15q-92 0 -154 42.5t-107 136.5l-13 26q-50 -18 -102.5 -27.5t-114.5 -9.5q-274 0 -412 135 t-138 401zM284 559q0 -30 2 -58.5t7 -52.5q31 64 95.5 99.5t150.5 35.5q123 0 211 -61t162 -205l61 -125q18 54 37.5 185.5t19.5 259.5v130q0 229 -101.5 341.5t-290.5 112.5q-86 0 -165.5 -25.5t-130.5 -60.5q-11 -37 -21 -82.5t-18.5 -99.5t-13.5 -120t-5 -144v-130z M334 349q0 -84 100.5 -164t242.5 -80q39 0 72.5 4.5t63.5 12.5l-47 97q-63 125 -136.5 181.5t-160.5 56.5q-135 0 -135 -108z" />
<glyph unicode="R" horiz-adv-x="1180" d="M71 96l149 33v1068l-149 33l19 96h482q204 0 312 -83t108 -253q0 -128 -58.5 -222.5t-159.5 -141.5l-6 -18l272 -479l143 -33l-20 -96h-244l-333 589h-179v-460l149 -33l-20 -96h-446zM407 715h120q61 0 123 9t123 30q11 44 20 96t9 100q0 116 -75 183t-221 67h-99v-485z " />
<glyph unicode="S" horiz-adv-x="1044" d="M107 294l114 24l81 -190q36 -10 80.5 -16.5t100.5 -6.5q73 0 139 9.5t123 27.5q10 25 19.5 65.5t9.5 96.5q0 62 -57.5 129t-250.5 182q-248 147 -303.5 227.5t-55.5 175.5q0 143 123 236.5t339 93.5q83 0 165.5 -12t160.5 -39l20 -265l-103 -22l-80 190 q-40 10 -81.5 15.5t-86.5 5.5q-76 0 -141.5 -10.5t-110.5 -26.5q-9 -30 -14 -62.5t-5 -68.5q0 -70 58.5 -128.5t255.5 -177.5q184 -108 268.5 -197.5t84.5 -211.5q0 -162 -125.5 -261t-336.5 -99q-118 0 -215.5 18.5t-155.5 43.5z" />
<glyph unicode="T" horiz-adv-x="1116" d="M14 1042l14 284h1061l13 -284l-96 -9l-61 167h-293v-1071l150 -33l-20 -96h-447l-19 96l150 33v1071h-294l-61 -167z" />
<glyph unicode="U" horiz-adv-x="1330" d="M16 1230l19 96h447l20 -96l-149 -33v-662q0 -218 92 -324t254 -106q77 0 144.5 22.5t108.5 51.5q33 61 54.5 147.5t21.5 184.5v686l-150 33l20 96h398l19 -96l-149 -33v-664q0 -285 -124.5 -420t-381.5 -135q-244 0 -368.5 122t-124.5 381v716z" />
<glyph unicode="V" horiz-adv-x="1156" d="M-43 1229l19 97h398l20 -97l-146 -29l344 -1022h16l343 1022l-146 29l19 97h356l20 -97l-106 -28l-422 -1201h-187l-423 1201z" />
<glyph unicode="W" horiz-adv-x="1958" d="M-43 1229l19 97h399l20 -97l-146 -29l328 -973h16l335 1099h187l328 -1099h15l298 973l-150 29l20 97h356l19 -97l-101 -27l-378 -1202h-187l-327 1085h-15l-331 -1085h-188l-413 1202z" />
<glyph unicode="X" horiz-adv-x="1247" d="M35 96l115 28l373 564l-339 513l-113 28l19 97h393l20 -97l-116 -28l262 -394h15l253 393l-117 29l19 97h348l20 -97l-116 -28l-345 -515l372 -562l114 -28l-19 -96h-393l-20 96l116 28l-293 444h-16l-283 -443l114 -29l-19 -96h-344z" />
<glyph unicode="Y" horiz-adv-x="1099" d="M-51 1229l20 97h401l20 -97l-129 -28l314 -493h16l298 493l-123 28l20 97h345l20 -97l-109 -28l-387 -637v-435l149 -33l-20 -96h-446l-20 96l150 33v437l-407 635z" />
<glyph unicode="Z" horiz-adv-x="1107" d="M80 0v122l701 1064l-5 14h-506l-80 -190l-102 22l25 294h890v-122l-702 -1064l5 -14h546l80 190l101 -22l-24 -294h-929z" />
<glyph unicode="[" horiz-adv-x="621" d="M176 -448v2091h351v-94h-187v-1903h187v-94h-351z" />
<glyph unicode="\" horiz-adv-x="816" d="M39 1490v19h162l557 -1779v-19h-162z" />
<glyph unicode="]" horiz-adv-x="621" d="M94 -354h187v1903h-187v94h351v-2091h-351v94z" />
<glyph unicode="^" horiz-adv-x="1081" d="M137 1028v29l357 452h94l357 -452v-29h-137l-262 328h-10l-262 -328h-137z" />
<glyph unicode="_" horiz-adv-x="1093" d="M59 -230h1015v-141h-1015v141z" />
<glyph unicode="`" horiz-adv-x="815" d="M138 1562v65l172 10l228 -356v-31l-116 -10z" />
<glyph unicode="a" horiz-adv-x="1127" d="M106 232q0 180 158.5 271.5t479.5 91.5v93q0 147 -53.5 213t-186.5 66q-32 0 -72.5 -4t-74.5 -10l-59 -208l-96 10v277q59 21 145.5 37t174.5 16q201 0 299.5 -89t98.5 -276v-591l170 -33l-20 -96l-250 -22l-57 174q-76 -93 -163 -133.5t-189 -40.5q-138 0 -221.5 69 t-83.5 185zM282 270q0 -82 54 -128t141 -46q74 0 145.5 37t121.5 87v257q-147 0 -261 -19t-173 -51q-12 -28 -20 -63t-8 -74z" />
<glyph unicode="b" horiz-adv-x="1099" d="M4 1413l20 96l306 22v-603l14 -6q59 78 133 120.5t179 42.5q168 0 259.5 -109.5t91.5 -322.5v-92q0 -272 -123.5 -427.5t-329.5 -155.5q-85 0 -201 21t-199 43v1338zM330 122q48 -9 113.5 -17.5t129.5 -8.5q60 0 113.5 18.5t84.5 42.5q21 43 40.5 143t19.5 213v116 q0 170 -60.5 254t-176.5 84q-68 0 -139.5 -43.5t-124.5 -102.5v-699z" />
<glyph unicode="c" horiz-adv-x="952" d="M94 391v91q0 290 124 446.5t343 156.5q74 0 149 -15t149 -47l19 -229l-108 -23l-67 176q-34 9 -69 14.5t-76 5.5q-61 0 -119.5 -14.5t-109.5 -44.5q-21 -58 -40 -155.5t-19 -211.5v-107q0 -157 91.5 -247.5t219.5 -90.5q71 0 143 18t146 54v-94q-67 -43 -155 -69.5 t-182 -26.5q-207 0 -323 106.5t-116 306.5z" />
<glyph unicode="d" horiz-adv-x="1162" d="M96 405v91q0 275 124 432t344 157q42 0 95 -5.5t124 -18.5v319l-150 33l20 96l306 22v-1402l150 -33l-19 -96l-231 -22l-56 174q-73 -92 -157 -134q-81 -40 -168 -40h-8q-175 0 -274.5 110.5t-99.5 316.5zM272 425q0 -159 69 -244t183 -85q72 0 143 38.5t116 85.5v721 q-57 12 -119.5 19t-118.5 7q-64 0 -122.5 -18t-101.5 -47q-23 -77 -36 -168.5t-13 -191.5v-117z" />
<glyph unicode="e" horiz-adv-x="1013" d="M94 406v81q0 281 125 439.5t341 158.5q199 0 287 -101.5t88 -353.5v-117h-665v-75q0 -165 91 -253.5t216 -88.5q82 0 160 17.5t146 46.5v-94q-85 -45 -178.5 -66.5t-186.5 -21.5q-201 0 -312.5 110t-111.5 318zM273 630h476q0 178 -51.5 257.5t-165.5 79.5 q-58 0 -113.5 -17.5t-89.5 -41.5q-21 -54 -36.5 -132.5t-19.5 -145.5z" />
<glyph unicode="f" horiz-adv-x="732" d="M94 967l20 96h140v106q0 181 75.5 271.5t217.5 90.5q45 0 92.5 -11t80.5 -26l-42 -128q-56 19 -113 29.5t-105 10.5q-12 -29 -21 -86.5t-9 -134.5v-122h210l20 -96l-230 -33v-805l209 -33l-20 -96h-496l-19 96l150 33v805z" />
<glyph unicode="g" horiz-adv-x="1053" d="M90 -254q0 66 53.5 132.5t151.5 130.5q-71 14 -111 51t-40 98q0 58 46.5 121.5t123.5 121.5q-85 40 -127.5 108.5t-42.5 147.5v25q0 192 107 297.5t285 105.5q28 0 72 -6.5t78 -15.5h308l17 -105h-203l-4 -9q42 -29 73 -85.5t31 -118.5v-25q0 -164 -107 -261.5 t-285 -97.5q-63 0 -116 11q-53 -49 -86 -92.5t-33 -69.5t18.5 -39.5t51.5 -13.5h219q234 0 350 -67.5t116 -212.5q0 -159 -136 -242t-386 -83q-217 0 -320.5 46t-103.5 148zM247 -211q0 -69 72 -94t254 -25q76 0 153 12t136 38q17 23 27 56t10 66q0 89 -71 123.5t-246 34.5 h-179q-69 -51 -112.5 -107t-43.5 -104zM320 692q0 -95 70 -154.5t150 -59.5q47 0 84.5 7.5t68.5 22.5q17 31 28 85.5t11 117.5v38q0 103 -64.5 160.5t-154.5 57.5q-46 0 -86 -8t-67 -21q-21 -53 -30.5 -108t-9.5 -101v-37z" />
<glyph unicode="h" horiz-adv-x="1297" d="M81 96l150 33v1251l-150 33l20 96l307 22v-603l13 -6q61 78 143.5 120.5t181.5 42.5q174 0 257 -92t83 -282v-582l150 -33l-20 -96h-437l-19 96l149 33v549q0 156 -52 222.5t-169 66.5q-75 0 -150.5 -42t-129.5 -104v-692l150 -33l-20 -96h-437z" />
<glyph unicode="i" horiz-adv-x="646" d="M104 96l150 33v805l-150 33l19 96l307 22v-956l150 -33l-19 -96h-438zM208 1373q0 55 29 95.5t67 40.5q56 0 95.5 -28.5t39.5 -68.5q0 -55 -29 -95t-67 -40q-55 0 -95 28.5t-40 67.5z" />
<glyph unicode="j" horiz-adv-x="557" d="M-102 -412l35 129q59 -16 130 -28t125 -12q18 37 28.5 99t10.5 140v1018l-179 33l20 96l336 22v-1131q0 -204 -69.5 -303t-231.5 -99q-53 0 -107 10t-98 26zM181 1373q0 55 29 95.5t67 40.5q56 0 96 -28.5t40 -68.5q0 -55 -29 -95t-67 -40q-55 0 -95.5 28.5t-40.5 67.5z " />
<glyph unicode="k" horiz-adv-x="1161" d="M82 96l150 33v1251l-150 33l20 96l307 22v-969l13 -6l421 393l-90 18l19 96h316l19 -96l-85 -18l-352 -319l336 -501l132 -33l-20 -96h-218l-350 521l-141 -127v-265l150 -33l-20 -96h-437z" />
<glyph unicode="l" horiz-adv-x="629" d="M91 96l150 33v1251l-150 33l20 96l306 22v-1402l150 -33l-19 -96h-437z" />
<glyph unicode="m" horiz-adv-x="1993" d="M102 96l150 33v805l-150 33l20 96l230 22l57 -175q70 85 163.5 130t191.5 45q129 0 205 -45.5t107 -129.5q90 94 181 134.5t186 40.5q174 0 258 -92.5t84 -281.5v-582l150 -33l-20 -96h-437l-20 96l150 33v539q0 152 -54.5 225.5t-182.5 73.5q-57 0 -126 -32t-139 -94 v-712l150 -33l-19 -96h-437l-20 96l150 33v539q0 153 -52.5 226t-184.5 73q-59 0 -129.5 -34.5t-135.5 -91.5v-712l150 -33l-19 -96h-437z" />
<glyph unicode="n" horiz-adv-x="1319" d="M104 96l150 33v805l-150 33l19 96l231 22l57 -175q72 83 163 129t192 46q176 0 259 -91.5t83 -282.5v-582l150 -33l-19 -96h-437l-20 96l150 33v539q0 150 -48.5 224.5t-174.5 74.5q-66 0 -138 -32t-141 -94v-712l150 -33l-19 -96h-438z" />
<glyph unicode="o" horiz-adv-x="1091" d="M94 411v91q0 270 124 426.5t328 156.5q214 0 333 -114t119 -328v-92q0 -260 -123.5 -416.5t-338.5 -156.5q-214 0 -328 114.5t-114 318.5zM270 444q0 -165 85 -256.5t210 -91.5q49 0 101 15.5t96 43.5q31 64 45 152t14 186v117q0 167 -77 260.5t-218 96.5 q-54 0 -107.5 -17t-89.5 -42q-25 -57 -42 -149.5t-17 -197.5v-117z" />
<glyph unicode="p" horiz-adv-x="1136" d="M29 -329l150 33v1230l-150 33l20 96l230 22l57 -175q74 89 159 132t182 43q180 0 273 -112.5t93 -329.5v-92q0 -266 -120.5 -419.5t-328.5 -153.5q-60 0 -118.5 6.5t-119.5 18.5v-299l150 -33l-20 -97h-437zM356 122q39 -8 106 -17t122 -9q60 0 118 14t108 45 q21 54 38.5 148t17.5 190v117q0 176 -64 266.5t-188 90.5q-61 0 -129.5 -34.5t-128.5 -91.5v-719z" />
<glyph unicode="q" horiz-adv-x="1063" d="M98 401v81q0 274 122.5 438.5t323.5 164.5q85 0 198 -19t210 -44v-1470l-307 22l-20 96l150 33v411l-10 4q-62 -71 -137.5 -105.5t-164.5 -34.5q-181 0 -273 108.5t-92 314.5zM274 444q0 -174 67 -261t176 -87q71 0 141.5 38t116.5 86v720q-54 12 -114.5 19.5t-118.5 7.5 q-63 0 -121 -19.5t-94 -46.5q-24 -70 -38.5 -157.5t-14.5 -182.5v-117z" />
<glyph unicode="r" horiz-adv-x="867" d="M104 96l150 33v805l-150 33l19 96l231 22l57 -175q47 89 110 132t147 43q41 0 79.5 -11t66.5 -30l-24 -278h-110l-25 182q-19 8 -44 8q-50 0 -100 -36t-81 -79v-712l182 -33l-19 -96h-470z" />
<glyph unicode="s" horiz-adv-x="950" d="M116 804q0 122 102.5 201.5t292.5 79.5q88 0 171 -18t143 -49l9 -236l-107 -20l-58 186q-39 10 -83 14.5t-81 4.5q-52 0 -101 -7t-90 -20q-9 -16 -15.5 -41t-6.5 -51q0 -53 44.5 -99.5t223.5 -139.5q203 -104 257.5 -178t54.5 -165q0 -128 -112 -208t-297 -80 q-100 0 -187.5 21t-142.5 48l-10 235l107 20l57 -183q38 -12 84 -17.5t94 -5.5q52 0 104.5 6.5t106.5 20.5q10 21 15 47t5 50q0 70 -63 125.5t-243 150.5q-163 85 -218.5 152.5t-55.5 155.5z" />
<glyph unicode="t" horiz-adv-x="727" d="M27 966l20 97h138l72 287l105 -19v-268h284l19 -97l-303 -31v-632q0 -104 30.5 -155.5t124.5 -51.5q32 0 70 10t79 28v-92q-45 -29 -103 -46.5t-117 -17.5q-137 0 -199 71t-62 216v670z" />
<glyph unicode="u" horiz-adv-x="1236" d="M37 967l20 96l307 22v-690q0 -153 53.5 -226t183.5 -73q70 0 139.5 33.5t124.5 90.5v714l-179 33l20 96l336 22v-956l150 -33l-20 -96l-230 -22l-57 175q-79 -93 -168 -134t-196 -41q-164 0 -249 93.5t-85 280.5v582z" />
<glyph unicode="v" horiz-adv-x="1040" d="M-12 967l20 96h362l20 -96l-126 -19l272 -819h16l272 819l-126 19l19 96h318l19 -96l-93 -18l-332 -949h-213l-335 949z" />
<glyph unicode="w" horiz-adv-x="1698" d="M-10 967l20 96h363l20 -96l-128 -19l250 -792h16l263 907h179l268 -907h15l229 792l-132 19l20 96h319l20 -96l-92 -17l-289 -950h-208l-253 811h-15l-246 -811h-208l-317 949z" />
<glyph unicode="x" horiz-adv-x="1064" d="M24 96l90 16l326 420l-318 420l-85 15l20 96h343l19 -96l-91 -14l230 -300h15l224 299l-92 15l19 96h297l20 -96l-86 -15l-319 -404l332 -436l90 -16l-19 -96h-350l-20 96l91 15l-241 317h-15l-234 -317l94 -15l-20 -96h-301z" />
<glyph unicode="y" horiz-adv-x="1083" d="M-10 967l20 96h362l20 -96l-122 -18l289 -820h15l290 820l-122 18l19 96h319l20 -96l-96 -18l-349 -947q-89 -244 -174.5 -347t-220.5 -103q-58 0 -117 15t-96 31l35 129q54 -20 126.5 -35t138.5 -15q37 25 73 73.5t64 127.5l-399 1071z" />
<glyph unicode="z" horiz-adv-x="947" d="M90 0v93l581 851l-6 12h-392l-51 -187l-101 11v283h766v-81l-589 -862l6 -12h422l51 186l102 -11v-283h-789z" />
<glyph unicode="{" horiz-adv-x="797" d="M147 551v94h94q60 0 84 24t24 84v616q0 59 20.5 109.5t57.5 87t87 57t109 20.5h77v-94h-21q-89 0 -127.5 -38.5t-38.5 -127.5v-572q0 -60 -10.5 -100.5t-26.5 -64.5t-38 -33.5t-43 -9.5v-10q21 0 43 -10t38 -34t26.5 -64t10.5 -101v-571q0 -89 38.5 -128t127.5 -39h21 v-94h-77q-59 0 -109 20.5t-87 57.5t-57.5 87.5t-20.5 109.5v616q0 60 -24 84t-84 24h-94z" />
<glyph unicode="|" horiz-adv-x="644" d="M265 -526v2163h115v-2163h-115z" />
<glyph unicode="}" horiz-adv-x="797" d="M98 -354h21q89 0 127.5 39t38.5 128v571q0 61 10.5 101t26.5 64t37 34t44 10v10q-23 0 -44 9.5t-37 33.5t-26.5 64.5t-10.5 100.5v572q0 89 -38.5 127.5t-127.5 38.5h-21v94h76q59 0 109.5 -20.5t87.5 -57t57.5 -87t20.5 -109.5v-616q0 -60 24 -84t84 -24h94v-94h-94 q-60 0 -84 -24t-24 -84v-616q0 -59 -20.5 -109.5t-57.5 -87.5t-87.5 -57.5t-109.5 -20.5h-76v94z" />
<glyph unicode="~" horiz-adv-x="1186" d="M137 514v24q0 55 18 97t49.5 70.5t74.5 42.5t93 14q36 0 79.5 -9.5t89.5 -24t92 -31t86.5 -30.5t73 -24t51.5 -10q18 0 36.5 7.5t32.5 22t23 36.5t9 52l114 9v-46q0 -52 -16.5 -93.5t-46 -70.5t-70.5 -44.5t-90 -15.5q-32 0 -75.5 10t-91.5 24t-97.5 30.5l-93 31 t-77.5 24t-52 9.5q-20 0 -39 -3.5t-33.5 -14.5t-23.5 -29.5t-9 -48.5z" />
<glyph unicode="&#xa1;" horiz-adv-x="560" d="M137 918q0 34 8 63.5t21 52.5t32 37t39 14q35 0 65.5 -8t53 -21t35.5 -31.5t13 -38.5q0 -34 -8 -64.5t-21 -53.5t-31.5 -37t-38.5 -14q-35 0 -65.5 8t-53.5 22t-36 32.5t-13 38.5zM160 -426l36 1127h138l36 -1127l-191 -22z" />
<glyph unicode="&#xa2;" horiz-adv-x="1003" d="M94 391v91q0 138 29.5 244.5t84.5 181t132.5 117.5t173.5 55v246h116v-242q67 -3 120.5 -13t90.5 -20q44 -13 77 -28v-250l-119 -13l-47 187q-15 4 -33 8q-15 2 -37.5 5.5t-51.5 5.5v-870q59 2 113.5 13.5t95.5 24.5q48 15 90 34v-94q-36 -23 -82 -41 q-40 -15 -94.5 -30.5t-122.5 -21.5v-221h-116v220q-93 5 -169.5 32t-132.5 77.5t-87 125.5t-31 176zM270 434q0 -70 20.5 -125.5t54 -96t77.5 -66t92 -38.5v855q-44 -5 -78 -14t-58 -18q-28 -11 -49 -23q-16 -44 -29 -100q-11 -48 -20.5 -115.5t-9.5 -151.5v-107z" />
<glyph unicode="&#xa3;" horiz-adv-x="1078" d="M108 661l98 27q-13 45 -22 82.5t-14.5 73.5t-8 72.5t-2.5 78.5q0 70 23.5 134t74 112.5t130 77.5t192.5 29q81 0 144.5 -13t107.5 -29q52 -17 91 -40v-271l-104 -15l-70 224q-23 7 -50 13q-25 5 -57.5 9t-74.5 4q-43 0 -78.5 -6.5t-61.5 -14.5q-30 -9 -54 -19 q-10 -22 -18 -49q-8 -24 -13.5 -57.5t-5.5 -76.5q0 -79 11 -153t33 -154h428v-127h-393q13 -56 21.5 -105.5t8.5 -99.5q0 -52 -7 -96.5t-15 -76.5q-9 -38 -20 -69h400l81 190l102 -22l-25 -294h-824l-19 96l128 28q9 28 16 60q6 29 11 66t5 82q0 29 -2.5 56t-7 55t-12 60 t-17.5 70h-111z" />
<glyph unicode="&#xa5;" horiz-adv-x="1099" d="M-51 1229l20 97h401l20 -97l-128 -28l316 -493h10l300 493l-122 28l20 97h345l20 -97l-109 -28l-353 -579h242v-124h-276v-126h276v-124h-276v-119l149 -33l-20 -96h-446l-20 96l150 33v119h-285v124h285v126h-285v124h249l-371 579z" />
<glyph unicode="&#xa8;" horiz-adv-x="992" d="M196 1356q0 25 7 47.5t19 39.5t28 27t33 10q26 0 48.5 -7t38.5 -19t25.5 -28.5t9.5 -33.5q0 -25 -7 -47t-18.5 -39t-27.5 -27t-34 -10q-25 0 -47.5 7t-39 19t-26 28t-9.5 33zM588 1356q0 25 7 47.5t18.5 39.5t27.5 27t33 10q26 0 48.5 -7t39 -19t26 -28.5t9.5 -33.5 q0 -25 -7 -47t-19 -39t-28 -27t-33 -10q-26 0 -48.5 7t-38.5 19t-25.5 28t-9.5 33z" />
<glyph unicode="&#xa9;" horiz-adv-x="1437" d="M118 930q0 124 47.5 234t128.5 191.5t191 128.5t234 47q125 0 234.5 -47t191 -128.5t128.5 -191.5t47 -234t-47 -234t-128.5 -191.5t-191 -129t-234.5 -47.5q-83 0 -160 21.5t-143.5 61t-121.5 94.5t-94 121.5t-60.5 143.5t-21.5 160zM254 930q0 -97 36 -182t99.5 -148 t148 -99t181.5 -36t182 36t148 99t99.5 148t36.5 182t-36.5 182t-99.5 148t-148 99.5t-182 36.5t-181.5 -36.5t-148 -99.5t-99.5 -148t-36 -182zM446 844v57q0 95 20.5 166t59 118t92 70.5t120.5 23.5q43 0 77.5 -6t58.5 -13q29 -9 51 -18l12 -189l-67 -14l-43 134 q-11 3 -24 6q-12 2 -28.5 4t-37.5 2q-28 0 -51 -4.5t-38 -9.5q-19 -6 -33 -14q-6 -26 -11 -59q-5 -29 -8 -69.5t-3 -90.5v-67q0 -50 14 -86t37 -60t51 -35.5t57 -11.5q35 0 67.5 7t57.5 16q29 9 56 22v-82q-27 -17 -60 -29q-28 -11 -67 -20t-86 -9q-59 0 -109.5 15.5 t-87 47.5t-57 81t-20.5 117z" />
<glyph unicode="&#xab;" horiz-adv-x="1041" d="M147 525v59l387 413h83v-22l-294 -411v-19l294 -411v-21h-83zM531 537v35l261 382h83v-22l-164 -377l164 -378v-21h-83z" />
<glyph unicode="&#xad;" d="M59 510v144h679v-144h-679z" />
<glyph unicode="&#xae;" horiz-adv-x="1437" d="M118 930q0 124 47.5 234t128.5 191.5t191 128.5t234 47q125 0 234.5 -47t191 -128.5t128.5 -191.5t47 -234t-47 -234t-128.5 -191.5t-191 -129t-234.5 -47.5q-83 0 -160 21.5t-143.5 61t-121.5 94.5t-94 121.5t-60.5 143.5t-21.5 160zM254 930q0 -97 36 -182t99.5 -148 t148 -99t181.5 -36t182 36t148 99t99.5 148t36.5 182t-36.5 182t-99.5 148t-148 99.5t-182 36.5t-181.5 -36.5t-148 -99.5t-99.5 -148t-36 -182zM467 686l69 15v474l-69 17l9 54h256q101 0 153 -40t52 -125q0 -66 -29.5 -106t-72.5 -67v-5l121 -203l71 -14l-9 -54h-153 l-152 261h-57v-192l68 -15l-9 -54h-239zM656 975h54q22 0 38.5 2.5t28.5 5.5q14 4 25 9q3 10 6 22q2 11 4.5 25.5t2.5 32.5q0 37 -26.5 64t-87.5 27h-45v-188z" />
<glyph unicode="&#xb4;" horiz-adv-x="1030" d="M389 1250v31l199 356l178 -10v-65l-274 -322z" />
<glyph unicode="&#xb8;" horiz-adv-x="801" d="M196 -311q26 -10 56 -19q25 -8 56.5 -14t63.5 -6q20 0 35 2t26 4q12 3 21 7q3 7 7 17q2 7 4 18t2 23q0 38 -37.5 62.5t-119.5 44.5l-34 53l60 155h130l-49 -132q42 -11 76 -24.5t59 -33.5t39.5 -48t14.5 -68q0 -39 -15.5 -71.5t-44.5 -56t-70.5 -37t-93.5 -13.5 q-39 0 -72.5 7t-58.5 16q-30 10 -55 23v91z" />
<glyph unicode="&#xbb;" horiz-adv-x="1041" d="M167 156v21l163 378l-163 377v22h83l261 -382v-35l-261 -381h-83zM424 113v21l294 411v19l-294 411v22h84l387 -413v-59l-387 -412h-84z" />
<glyph unicode="&#xbf;" horiz-adv-x="959" d="M98 -180q0 51 12.5 95.5t39 87t68 86.5t98.5 96l148 135q60 55 88 98.5t28 86.5q0 37 -23.5 54.5t-66.5 17.5q-28 0 -52.5 -5t-43.5 -10q-22 -7 -40 -15v99q21 14 49 24q23 9 56 17t74 8q44 0 84.5 -12t71 -35.5t49.5 -59t19 -82.5q0 -39 -9 -74t-29.5 -71t-53.5 -74.5 t-81 -82.5l-149 -137q-44 -42 -75 -75t-50 -62.5t-27.5 -57t-8.5 -56.5q0 -31 14 -57.5t44 -46.5t77.5 -31t115.5 -11q43 0 75.5 4.5t55.5 8.5q25 6 46 14l69 225l110 -17v-272q-45 -23 -104 -41q-50 -15 -120.5 -27.5t-157.5 -12.5q-194 0 -297.5 67.5t-103.5 200.5z M442 918q0 34 8 63.5t21 52.5t31.5 37t39.5 14q35 0 65.5 -8t53 -21t35.5 -31.5t13 -38.5q0 -34 -8 -64.5t-21.5 -53.5t-31.5 -37t-38 -14q-36 0 -66 8t-53.5 22t-36 32.5t-12.5 38.5z" />
<glyph unicode="&#xc1;" horiz-adv-x="1193" d="M-8 96l106 28l431 1202h146l421 -1202l105 -28l-19 -96h-377l-20 96l125 28l-92 274h-481l-94 -274l125 -28l-19 -96h-337zM381 524h394l-190 558h-10zM462 1442v31l292 275l189 -9v-65l-368 -243z" />
<glyph unicode="&#xc9;" horiz-adv-x="1167" d="M74 96l150 33v1068l-150 33l20 96h918l24 -294l-101 -22l-81 190h-443v-443h349l34 119l97 -19v-328l-97 -19l-34 120h-349v-504h471l81 190l102 -23l-23 -293h-948zM438 1442v31l292 275l189 -9v-65l-368 -243z" />
<glyph unicode="&#xcd;" horiz-adv-x="630" d="M71 96l149 33v1068l-149 33l19 96h446l20 -96l-149 -33v-1068l149 -33l-20 -96h-446zM172 1442v31l292 275l189 -9v-65l-368 -243z" />
<glyph unicode="&#xd1;" horiz-adv-x="1501" d="M71 96l149 33v1068l-149 33l19 96h412l642 -1193h15v1064l-151 33l20 96h399l19 -96l-148 -33v-1197h-282l-643 1194h-15v-1065l149 -33l-20 -96h-397zM367 1465v25q0 110 57 167t158 57q53 0 107.5 -20t104 -44.5t91.5 -44.5t71 -20q37 0 59 28.5t22 88.5l115 10v-46 q0 -104 -52.5 -164t-151.5 -60q-48 0 -104.5 20t-111 44.5t-100.5 44.5t-73 20q-20 0 -36 -4t-27 -14.5t-17 -29.5t-6 -48z" />
<glyph unicode="&#xd3;" horiz-adv-x="1318" d="M100 514v78q0 381 145 568.5t424 187.5q273 0 411 -134t138 -404v-76q0 -369 -141 -562.5t-427 -193.5q-274 0 -412 135t-138 401zM286 559q0 -217 110.5 -335.5t282.5 -118.5q86 0 162 26t124 61q32 98 49.5 215.5t17.5 229.5v130q0 232 -102.5 343t-289.5 111 q-87 0 -164.5 -27t-121.5 -59q-30 -90 -49 -202.5t-19 -243.5v-130zM511 1442v31l292 275l189 -9v-65l-368 -243z" />
<glyph unicode="&#xda;" horiz-adv-x="1330" d="M16 1230l19 96h447l20 -96l-149 -33v-662q0 -218 92 -324t254 -106q77 0 144.5 22.5t108.5 51.5q33 61 54.5 147.5t21.5 184.5v686l-150 33l20 96h398l19 -96l-149 -33v-664q0 -285 -124.5 -420t-381.5 -135q-244 0 -368.5 122t-124.5 381v716zM552 1442v31l292 275 l189 -9v-65l-368 -243z" />
<glyph unicode="&#xdc;" horiz-adv-x="1330" d="M16 1230l19 96h447l20 -96l-149 -33v-662q0 -218 92 -324t254 -106q77 0 144.5 22.5t108.5 51.5q33 61 54.5 147.5t21.5 184.5v686l-150 33l20 96h398l19 -96l-149 -33v-664q0 -285 -124.5 -420t-381.5 -135q-244 0 -368.5 122t-124.5 381v716zM361 1549q0 25 7 47.5 t19 39.5t28 27t33 10q26 0 48.5 -7t38.5 -18.5t25.5 -28t9.5 -34.5q0 -25 -7 -47t-18.5 -39t-27.5 -27t-33 -10q-26 0 -48.5 7t-39 19t-26 28t-9.5 33zM812 1549q0 25 7 47.5t18.5 39.5t27.5 27t33 10q26 0 48.5 -7t39 -18.5t26 -28t9.5 -34.5q0 -25 -7 -47t-19 -39t-28 -27 t-33 -10q-26 0 -48.5 7t-38.5 19t-25.5 28t-9.5 33z" />
<glyph unicode="&#xe1;" horiz-adv-x="1127" d="M106 232q0 180 158.5 271.5t479.5 91.5v93q0 147 -53.5 213t-186.5 66q-32 0 -72.5 -4t-74.5 -10l-59 -208l-96 10v277q59 21 145.5 37t174.5 16q201 0 299.5 -89t98.5 -276v-591l170 -33l-20 -96l-250 -22l-57 174q-76 -93 -163 -133.5t-189 -40.5q-138 0 -221.5 69 t-83.5 185zM282 270q0 -82 54 -128t141 -46q74 0 145.5 37t121.5 87v257q-147 0 -261 -19t-173 -51q-12 -28 -20 -63t-8 -74zM461 1250v31l199 356l178 -10v-65l-274 -322z" />
<glyph unicode="&#xe9;" horiz-adv-x="1013" d="M94 406v81q0 281 125 439.5t341 158.5q199 0 287 -101.5t88 -353.5v-117h-665v-75q0 -165 91 -253.5t216 -88.5q82 0 160 17.5t146 46.5v-94q-85 -45 -178.5 -66.5t-186.5 -21.5q-201 0 -312.5 110t-111.5 318zM273 630h476q0 178 -51.5 257.5t-165.5 79.5 q-58 0 -113.5 -17.5t-89.5 -41.5q-21 -54 -36.5 -132.5t-19.5 -145.5zM482 1250v31l199 356l178 -10v-65l-274 -322z" />
<glyph unicode="&#xed;" horiz-adv-x="646" d="M104 96l150 33v805l-150 33l19 96l307 22v-956l150 -33l-19 -96h-438zM230 1250v31l199 356l178 -10v-65l-274 -322z" />
<glyph unicode="&#xf1;" horiz-adv-x="1319" d="M104 96l150 33v805l-150 33l19 96l231 22l57 -175q72 83 163 129t192 46q176 0 259 -91.5t83 -282.5v-582l150 -33l-19 -96h-437l-20 96l150 33v539q0 150 -48.5 224.5t-174.5 74.5q-66 0 -138 -32t-141 -94v-712l150 -33l-19 -96h-438zM301 1256v25q0 111 57.5 167.5 t158.5 56.5q53 0 107 -20t103.5 -44.5t92 -44.5t70.5 -20q37 0 59 29t22 89l115 9v-46q0 -104 -52.5 -164t-151.5 -60q-48 0 -104.5 20t-110.5 44.5t-100 44.5t-74 20q-20 0 -36 -4t-26.5 -14.5t-16.5 -29t-6 -48.5z" />
<glyph unicode="&#xf3;" horiz-adv-x="1091" d="M94 411v91q0 270 124 426.5t328 156.5q214 0 333 -114t119 -328v-92q0 -260 -123.5 -416.5t-338.5 -156.5q-214 0 -328 114.5t-114 318.5zM270 444q0 -165 85 -256.5t210 -91.5q49 0 101 15.5t96 43.5q31 64 45 152t14 186v117q0 167 -77 260.5t-218 96.5 q-54 0 -107.5 -17t-89.5 -42q-25 -57 -42 -149.5t-17 -197.5v-117zM476 1250v31l199 356l178 -10v-65l-274 -322z" />
<glyph unicode="&#xfa;" horiz-adv-x="1236" d="M37 967l20 96l307 22v-690q0 -153 53.5 -226t183.5 -73q70 0 139.5 33.5t124.5 90.5v714l-179 33l20 96l336 22v-956l150 -33l-20 -96l-230 -22l-57 175q-79 -93 -168 -134t-196 -41q-164 0 -249 93.5t-85 280.5v582zM516 1250v31l199 356l178 -10v-65l-274 -322z" />
<glyph unicode="&#xfc;" horiz-adv-x="1236" d="M37 967l20 96l307 22v-690q0 -153 53.5 -226t183.5 -73q70 0 139.5 33.5t124.5 90.5v714l-179 33l20 96l336 22v-956l150 -33l-20 -96l-230 -22l-57 175q-79 -93 -168 -134t-196 -41q-164 0 -249 93.5t-85 280.5v582zM283 1356q0 25 7 47.5t19 39.5t28 27t33 10 q26 0 48.5 -7t38.5 -19t25.5 -28.5t9.5 -33.5q0 -25 -7 -47t-18.5 -39t-27.5 -27t-34 -10q-25 0 -47.5 7t-39 19t-26 28t-9.5 33zM675 1356q0 25 7 47.5t18.5 39.5t27.5 27t33 10q26 0 48.5 -7t39 -19t26 -28.5t9.5 -33.5q0 -25 -7 -47t-19 -39t-28 -27t-33 -10 q-26 0 -48.5 7t-38.5 19t-25.5 28t-9.5 33z" />
<glyph unicode="&#x2c6;" horiz-adv-x="979" d="M196 1250v31l228 365l131 -9l228 -356v-31l-122 -10l-190 247l-182 -247z" />
<glyph unicode="&#x2da;" horiz-adv-x="781" d="M196 1407q0 58 16.5 101t44.5 71.5t65.5 43t78.5 14.5q37 0 71 -10t59 -30t39.5 -51.5t14.5 -75.5q0 -61 -15.5 -104.5t-43.5 -71.5t-65.5 -41t-79.5 -13q-38 0 -72 9.5t-59 30t-39.5 52.5t-14.5 75zM299 1439q0 -30 8 -54t20.5 -40t29 -25t34.5 -9q17 0 32.5 2.5 t26.5 6.5q13 4 24 10q2 11 4 27q2 14 3.5 34.5t1.5 47.5q0 29 -8 53t-20.5 40t-29 25t-34.5 9q-14 0 -27 -3t-24 -7q-12 -4 -22 -9q-6 -9 -10 -25q-4 -14 -6.5 -34.5t-2.5 -48.5z" />
<glyph unicode="&#x2dc;" horiz-adv-x="1078" d="M147 1256v25q0 111 57.5 167.5t158.5 56.5q53 0 107 -20t103.5 -44.5t92 -44.5t70.5 -20q37 0 59 29t22 89l115 9v-46q0 -104 -52.5 -164t-151.5 -60q-48 0 -104.5 20t-110.5 44.5t-100 44.5t-74 20q-20 0 -36 -4t-26.5 -14.5t-16.5 -29t-6 -48.5z" />
<glyph unicode="&#x2000;" horiz-adv-x="874" />
<glyph unicode="&#x2001;" horiz-adv-x="1748" />
<glyph unicode="&#x2002;" horiz-adv-x="874" />
<glyph unicode="&#x2003;" horiz-adv-x="1748" />
<glyph unicode="&#x2004;" horiz-adv-x="582" />
<glyph unicode="&#x2005;" horiz-adv-x="437" />
<glyph unicode="&#x2006;" horiz-adv-x="291" />
<glyph unicode="&#x2007;" horiz-adv-x="291" />
<glyph unicode="&#x2008;" horiz-adv-x="218" />
<glyph unicode="&#x2009;" horiz-adv-x="349" />
<glyph unicode="&#x200a;" horiz-adv-x="97" />
<glyph unicode="&#x2010;" d="M59 510v144h679v-144h-679z" />
<glyph unicode="&#x2011;" d="M59 510v144h679v-144h-679z" />
<glyph unicode="&#x2012;" d="M59 510v144h679v-144h-679z" />
<glyph unicode="&#x2013;" horiz-adv-x="1118" d="M69 499l19 133h962l-20 -133h-961z" />
<glyph unicode="&#x2014;" horiz-adv-x="1994" d="M10 499l19 133h1936l-20 -133h-1935z" />
<glyph unicode="&#x2018;" horiz-adv-x="462" d="M59 1166q0 45 7 87.5t27.5 86.5t58 90.5t100.5 100.5l61 -72q-78 -64 -107.5 -113.5t-29.5 -87.5q0 -17 14.5 -27t35.5 -16q44 -11 71.5 -34t27.5 -51q0 -31 -7 -59t-19.5 -49.5t-29 -34t-35.5 -12.5q-35 0 -73 11t-62 36q-8 9 -15.5 20.5t-12.5 28.5t-8.5 40.5 t-3.5 54.5z" />
<glyph unicode="&#x2019;" horiz-adv-x="378" d="M47 1376q0 31 7.5 59t19.5 49.5t29 34t35 12.5q35 0 73 -11t62 -36q16 -17 28.5 -49.5t12.5 -94.5q0 -45 -7 -87.5t-27.5 -86.5t-58.5 -90.5t-100 -100.5l-61 72q77 64 106.5 113.5t29.5 87.5q0 17 -14 27t-36 16q-44 10 -71.5 33.5t-27.5 51.5z" />
<glyph unicode="&#x201a;" horiz-adv-x="462" d="M118 71q0 31 7 59t19.5 49.5t29 33.5t35.5 12q35 0 72.5 -10.5t62.5 -36.5q16 -16 28 -48.5t12 -95.5q0 -45 -7 -87t-27.5 -86t-58 -90.5t-100.5 -100.5l-61 71q78 65 107.5 114.5t29.5 86.5q0 18 -14.5 27.5t-35.5 15.5q-45 11 -72 34t-27 52z" />
<glyph unicode="&#x201c;" horiz-adv-x="805" d="M59 1166q0 45 7 87.5t27.5 86.5t58 90.5t100.5 100.5l61 -72q-78 -64 -107.5 -113.5t-29.5 -87.5q0 -17 14.5 -27t35.5 -16q44 -11 71.5 -34t27.5 -51q0 -31 -7 -59t-19.5 -49.5t-29 -34t-35.5 -12.5q-35 0 -73 11t-62 36q-8 9 -15.5 20.5t-12.5 28.5t-8.5 40.5 t-3.5 54.5zM402 1166q0 45 7 87.5t27.5 86.5t58 90.5t100.5 100.5l61 -72q-78 -64 -107.5 -113.5t-29.5 -87.5q0 -17 14.5 -27t35.5 -16q44 -11 71.5 -34t27.5 -51q0 -31 -7 -59t-19.5 -49.5t-29 -34t-35.5 -12.5q-35 0 -73 11t-62 36q-8 9 -15.5 20.5t-12.5 28.5t-8.5 40.5 t-3.5 54.5z" />
<glyph unicode="&#x201d;" horiz-adv-x="721" d="M47 1376q0 31 7.5 59t19.5 49.5t29 34t35 12.5q35 0 73 -11t62 -36q16 -17 28.5 -49.5t12.5 -94.5q0 -45 -7 -87.5t-27.5 -86.5t-58.5 -90.5t-100 -100.5l-61 72q77 64 106.5 113.5t29.5 87.5q0 17 -14 27t-36 16q-44 10 -71.5 33.5t-27.5 51.5zM390 1376q0 31 7.5 59 t19.5 49.5t29 34t35 12.5q35 0 73 -11t62 -36q16 -17 28.5 -49.5t12.5 -94.5q0 -45 -7 -87.5t-27.5 -86.5t-58.5 -90.5t-100 -100.5l-61 72q77 64 106.5 113.5t29.5 87.5q0 17 -14 27t-36 16q-44 10 -71.5 33.5t-27.5 51.5z" />
<glyph unicode="&#x201e;" horiz-adv-x="806" d="M118 71q0 31 7 59t19.5 49.5t29 33.5t35.5 12q35 0 72.5 -10.5t62.5 -36.5q16 -16 28 -48.5t12 -95.5q0 -45 -7 -87t-27.5 -86t-58 -90.5t-100.5 -100.5l-61 71q78 65 107.5 114.5t29.5 86.5q0 18 -14.5 27.5t-35.5 15.5q-45 11 -72 34t-27 52zM462 71q0 31 7 59 t19.5 49.5t29 33.5t35.5 12q35 0 72.5 -10.5t62.5 -36.5q16 -16 28 -48.5t12 -95.5q0 -45 -7 -87t-27.5 -86t-58 -90.5t-100.5 -100.5l-61 71q78 65 107.5 114.5t29.5 86.5q0 18 -14.5 27.5t-35.5 15.5q-45 11 -72 34t-27 52z" />
<glyph unicode="&#x2026;" horiz-adv-x="1756" d="M137 77q0 34 8 64.5t21.5 54t31.5 37t38 13.5q35 0 65.5 -8t53.5 -21.5t36 -32t13 -39.5q0 -33 -8 -63t-21.5 -53t-32 -37t-38.5 -14q-35 0 -65.5 8t-53 22t-35.5 31.5t-13 37.5zM735 77q0 34 8 64.5t21.5 54t31 37t38.5 13.5q35 0 65.5 -8t53.5 -21.5t36 -32t13 -39.5 q0 -33 -8 -63t-22 -53t-32 -37t-38 -14q-36 0 -66 8t-53 22t-35.5 31.5t-12.5 37.5zM1333 77q0 34 7.5 64.5t21.5 54t31.5 37t38.5 13.5q35 0 65.5 -8t53.5 -21.5t35.5 -32t12.5 -39.5q0 -33 -7.5 -63t-21.5 -53t-32 -37t-39 -14q-35 0 -65.5 8t-53 22t-35 31.5t-12.5 37.5z " />
<glyph unicode="&#x202f;" horiz-adv-x="349" />
<glyph unicode="&#x2039;" horiz-adv-x="784" d="M147 525v59l387 413h83v-22l-294 -411v-19l294 -411v-21h-83z" />
<glyph unicode="&#x203a;" horiz-adv-x="784" d="M167 113v21l294 411v19l-294 411v22h83l387 -413v-59l-387 -412h-83z" />
<glyph unicode="&#x205f;" horiz-adv-x="437" />
<glyph unicode="&#x20ac;" horiz-adv-x="1176" d="M20 513l22 98h132q1 25 1.5 49.5t2.5 48.5h-158l22 98h146q39 265 184.5 403t394.5 138q82 0 147 -12.5t112 -27.5q54 -17 97 -39v-281h-118l-47 212q-26 6 -58 10q-29 4 -69 7.5t-90 3.5q-72 0 -126 -13t-92 -30q-44 -19 -75 -43q-17 -39 -32 -89q-14 -43 -27.5 -103.5 t-20.5 -135.5h576l-23 -98h-560v-40v-58h537l-23 -98h-514q4 -112 39 -190t92 -126.5t130.5 -70t152.5 -21.5q74 0 139 15.5t115 35.5q58 22 108 51v-104q-54 -35 -122 -63q-59 -23 -138.5 -42.5t-177.5 -19.5q-105 0 -199.5 25t-167 86t-115.5 162t-43 254v8h-154z" />
<glyph unicode="&#x2122;" horiz-adv-x="1823" d="M147 1160l13 166h547l11 -166l-51 -10l-40 94h-134v-511l74 -17l-9 -54h-250l-10 54l75 17v511h-135l-40 -94zM778 716l75 17v522l-75 17l10 54h244l195 -514h5l187 514h248l10 -54l-75 -17v-522l75 -17l-10 -54h-249l-10 54l75 17v508h-5l-216 -579h-94l-225 580h-5 v-509l69 -17l-4 -54h-215z" />
<glyph unicode="&#x25fc;" horiz-adv-x="1063" d="M0 0v1063h1063v-1063h-1063z" />
</font>
</defs>
</svg>
